<svg xmlns="http://www.w3.org/2000/svg" data-name="Layer 1" viewBox="0 0 32 32" id="travel-guide-book"><defs><linearGradient id="a" x1="9.47" x2="24.43" y1="12.53" y2="27.49" gradientUnits="userSpaceOnUse"><stop offset="0" stop-color="#fff" stop-opacity=".25"></stop><stop offset="1" stop-color="#f86c66"></stop></linearGradient></defs><path fill="#ff9d23" d="M10.35 1.35a.33.33 0 0 1-.23-.09.33.33 0 0 1 0-.45l.72-.72a.31.31 0 0 1 .22-.09.32.32 0 0 1 .23.09l.63.64a.33.33 0 0 1 0 .45.33.33 0 0 1-.45 0l-.41-.41-.49.49a.31.31 0 0 1-.22.09Z"></path><path fill="#9495fa" d="M28 25.58a.32.32 0 0 1-.2-.58l.71-.71a.33.33 0 0 1 .45 0l.64.63a.33.33 0 0 1 0 .45.31.31 0 0 1-.45 0l-.41-.37-.49.49a.35.35 0 0 1-.25.09zM2.63 20.66a.35.35 0 0 1-.23-.09.33.33 0 0 1 0-.45l1-.95a.31.31 0 0 1 .45 0 .33.33 0 0 1 0 .45l-1 .95a.31.31 0 0 1-.22.09z"></path><path fill="#ff4b4d" d="M26.74 14.41a.35.35 0 0 1-.23-.09.33.33 0 0 1 0-.45l1.12-1.11a.31.31 0 0 1 .44 0 .31.31 0 0 1 0 .45L27 14.32a.31.31 0 0 1-.26.09Z"></path><path fill="#0000db" d="M11.46 32a.35.35 0 0 1-.23-.09.33.33 0 0 1 0-.45l1.12-1.11a.3.3 0 0 1 .44 0 .31.31 0 0 1 0 .45l-1.11 1.11a.31.31 0 0 1-.22.09Z"></path><path fill="#ff9d23" d="M22.28 30.9a.32.32 0 0 1-.23-.09.33.33 0 0 1 0-.45l1.11-1.11a.31.31 0 0 1 .45 0 .33.33 0 0 1 0 .45l-1.11 1.11a.31.31 0 0 1-.22.09Z"></path><path fill="url(#a)" d="M22.31 8.6a4.26 4.26 0 0 0-2.82-.82 9.72 9.72 0 0 0-2.89.67 19.48 19.48 0 0 0-7.9 4.87 12.48 12.48 0 0 0-3.49 8.87 7.92 7.92 0 0 0 1 3.65A4.66 4.66 0 0 0 9 28.06c2.37.59 4.8-1.22 7.19-.76a31.35 31.35 0 0 1 3.17 1.22 5.87 5.87 0 0 0 5.9-1.89 8.84 8.84 0 0 0 2-6.43c-.19-2.5-1.36-4.21-2.46-6.29-.93-1.78-.8-3.99-2.49-5.31Z"></path><path fill="#9495fa" stroke="#0000db" stroke-linecap="round" stroke-linejoin="round" stroke-width=".66" d="M25.29 21a.33.33 0 0 1-.25.32H9.88l.65-17.44h12.88a1 1 0 0 1 1 .93Z"></path><path fill="#fff" d="m10 20.54.56-15.8h12.72a.32.32 0 0 1 .32.3l.86 15.5Z"></path><path fill="#9495fa" stroke="#0000db" stroke-linecap="round" stroke-linejoin="round" stroke-width=".66" d="m10.53 3.92-.65 17.44h-1A1.77 1.77 0 0 0 7.1 23L8 4.86a1 1 0 0 1 1-.94Z"></path><path fill="#fed3be" stroke="#0000db" stroke-linecap="round" stroke-linejoin="round" stroke-width=".66" d="M25.05 24.91H8.94a1.83 1.83 0 0 1-1.85-1.64v-.13a1 1 0 0 1 0-.18 1.77 1.77 0 0 1 1.76-1.6h16.2a3.67 3.67 0 0 0 0 3.55Z"></path><path fill="none" stroke="#0000db" stroke-linecap="round" stroke-linejoin="round" stroke-width=".66" d="M25.29 24.91h-.24M24.6 23.14H10.68"></path><path fill="#f86c66" stroke="#0000db" stroke-linecap="round" stroke-linejoin="round" stroke-width=".66" d="M18.48 13.14a16.91 16.91 0 0 1-.37 3.05l1.21.86a.11.11 0 0 1 0 .14l-.19.35a.1.1 0 0 1-.13.05l-1.45-.51-1.44.51a.1.1 0 0 1-.13-.05l-.19-.35a.1.1 0 0 1 0-.14l1.2-.86a17.89 17.89 0 0 1-.37-3.05l-4.12.59a.12.12 0 0 1-.13-.08l-.09-.52a.11.11 0 0 1 .05-.12l4.33-2.19V9.48a2.19 2.19 0 0 1 .6-1.7.41.41 0 0 1 .53 0 2.26 2.26 0 0 1 .6 1.7v1.34L22.77 13a.1.1 0 0 1 .06.12l-.1.52a.1.1 0 0 1-.12.08Z"></path></svg>