<svg xmlns="http://www.w3.org/2000/svg" viewBox="0 0 512 512" id="beach"><g data-name="Layer 1"><path fill="#80eaff" d="M334.184,374.664C317.5,325.009,308.436,269.447,304.662,209.79A19.307,19.307,0,0,0,330.217,185.9a19.307,19.307,0,0,0-2.5-37.947c9.233-18.13,29.4-35.824,55.944-46.821,42.153-17.46,84.9-11.637,97.535,12.732-37.91,3.566-75.345,16.447-111.137,36.994a131.15,131.15,0,0,1,39.5-5.888c45.625,0,82.888,21.738,85.237,49.089-28.209-8.693-58.3-12.1-89.465-10.735a139.76,139.76,0,0,1,14.777,4.475c42.863,15.635,70.421,48.826,63.255,75.325-43.011-32.608-97.965-50.789-159.262-55.721,20.342,59.167,45.234,115.6,75.776,168.638l-3.26,5.193A213.159,213.159,0,0,0,334.184,374.664Zm27.782,66.227c-45.382,3.784-92.209-6.984-135.284-35.67H10.107v82.628h360.1C385.186,476.93,382.438,443.572,361.966,440.891ZM248.971,167.563a131.2,131.2,0,0,0-38.749,9.678c-42.152,17.46-68.26,51.8-59.964,77.971a258.894,258.894,0,0,1,67.657-39.959c-1.543,1.411-3.075,2.853-4.579,4.358-32.263,32.262-43.241,73.982-25.562,94.983C211.1,270.48,248.9,233.24,296.74,203.894a19.292,19.292,0,0,1-3.367-17.711,19.294,19.294,0,0,1-5.129-36.419c-15.327-13.834-41.346-22.936-70.868-22.936-45.626,0-82.889,21.737-85.238,49.088C168.527,164.7,208.041,162.277,248.971,167.563Z"></path><path fill="#57a4ff" d="M504.1,346.776c-24.978-8.315-44.38-10.84-61.062-7.946-16.722,2.9-30.676,11.153-42.339,25.041-24.875-44.516-46.846-93.256-65.467-145.292,58.891,7.7,106.069,19.938,143.168,50.659a7,7,0,0,0,11.138-3.276c7.479-23.59-8.39-52.3-37.665-72.69a205.889,205.889,0,0,1,40.866,8.045,7,7,0,0,0,9.036-7.288c-1.34-15.6-11.945-29.9-29.861-40.262-16.3-9.426-37.367-14.773-59.572-15.187a249.641,249.641,0,0,1,69.51-17.177,7,7,0,0,0,5.559-10.192c-7.21-13.9-22.48-23.055-43-25.769-19.45-2.573-41.978.905-63.433,9.792-25.258,10.463-46.37,27.546-57.4,46.254a26.144,26.144,0,0,0-12.457,4.275,26.27,26.27,0,0,0-21.514-3.406c-17.52-13.966-43.69-21.961-72.235-21.961-23.224,0-45.367,5.408-62.352,15.228-17.916,10.358-28.521,24.657-29.86,40.261a7,7,0,0,0,9.035,7.289,249.664,249.664,0,0,1,70.788-10.73c-20.354,8.881-37.766,21.88-49.221,36.827-12.589,16.427-16.914,33.7-12.181,48.625a7,7,0,0,0,11.137,3.276,239.352,239.352,0,0,1,32.126-22.378,107.306,107.306,0,0,0-12.877,30.914c-4.7,20.168-1.7,37.912,8.448,49.962a7,7,0,0,0,5.354,2.492,7.183,7.183,0,0,0,.746-.039,7,7,0,0,0,5.443-3.688c22.877-43.257,59.707-79.28,104.089-101.955,4.021,58.175,12.766,108.1,26.676,152.3-31.619,2.834-63.943,12.791-99.625,30.012H10.107a7,7,0,0,0-7,7v82.627a7,7,0,0,0,7,7H501.893a7,7,0,0,0,7-7v-135A7,7,0,0,0,504.1,346.776ZM299.613,193.87a26.345,26.345,0,0,0,11.512-4.186A26.144,26.144,0,0,0,324.053,194a12.311,12.311,0,0,1-24.44-.125ZM466.026,225.5c6.612,8.646,10.415,17.271,11.211,25.165-37.758-27.094-83.793-38.573-139.837-45.924,30.373-7.713,58.169-11.882,83.722-12.517C439.752,200.181,455.666,211.953,466.026,225.5Zm-56.46-72.962c34.7,0,65.107,13.626,74.989,32.017-41.315-10-88.777-8.329-144.364,5.068A26.349,26.349,0,0,0,351.7,171.141q11.391-7.7,22.873-14.253C384.536,154.009,396.3,152.54,409.566,152.54Zm-23.222-44.372c32.014-13.26,65.278-12.328,81.467.831-39.917,5.866-79.736,21.646-118.636,47.014a26.5,26.5,0,0,0-10.985-11.4C348.25,130.014,365.657,116.737,386.344,108.168ZM325.612,155.4a12.322,12.322,0,1,1-12.321,12.322A12.336,12.336,0,0,1,325.612,155.4Zm-23.823,1.145a26.254,26.254,0,0,0,0,22.354,12.322,12.322,0,1,1,0-22.354ZM217.376,134.4c22.9,0,44.564,5.893,59.493,15.956a26.212,26.212,0,0,0-6.362,14.109c-45.825-8.648-88.809-8.017-128.08,1.878C152.35,147.985,182.725,134.4,217.376,134.4Zm-4.475,49.88a125.392,125.392,0,0,1,35.988-9.111q11.877,1.571,24.051,4.043a26.49,26.49,0,0,0,9.6,10.737c-49.469,9.092-91.971,26.711-126.656,52.523C158.028,221.714,180.89,197.536,212.9,184.276ZM187.846,300.769c-6.118-19.3,2.24-50.574,28.138-76.607a325.279,325.279,0,0,1,71.857-20.948q.512,1.132,1.123,2.205A258.319,258.319,0,0,0,187.846,300.769Zm124.4-82.027A26.207,26.207,0,0,0,320,217.453c19.628,55.846,43.053,108.058,69.764,155.519a216.7,216.7,0,0,0-50.6-5.006C325.219,324.821,316.4,275.911,312.25,218.742Zm120.3,182.36a7.95,7.95,0,0,1,.22,14.648c-63.759,28.7-132.849,25.259-191.479-9.079C310.316,375.609,366.544,374.158,432.551,401.1ZM17.107,481.417V412.79H224.6c36.936,24.117,78.211,36.326,120.17,36.326,1.266,0,2.534-.029,3.8-.051v.079c8.325,0,15.086,1.9,19.553,5.5a13.018,13.018,0,0,1,5.224,10.142c0,8.267-8.511,16.635-24.777,16.635Zm477.786,0h-113.3a27.425,27.425,0,0,0,5.755-16.635A26.283,26.283,0,0,0,379.7,446.3a233.974,233.974,0,0,0,58.814-17.781,21.951,21.951,0,0,0-.675-40.376c-9.91-4.045-19.6-7.467-29.159-10.3-.165-.281-.327-.565-.491-.846,23.49-31.578,55.2-28.352,86.7-18.481Zm-413.77-363.8A33.021,33.021,0,1,0,48.1,84.6,33.058,33.058,0,0,0,81.123,117.619Zm0-52.042A19.021,19.021,0,1,1,62.1,84.6,19.042,19.042,0,0,1,81.123,65.577Zm-7-24.485V23.583a7,7,0,0,1,14,0V41.092a7,7,0,0,1-14,0Zm32.813,17.692a7,7,0,0,1,0-9.9L119.317,36.5a7,7,0,0,1,9.9,9.9L116.835,58.784a7,7,0,0,1-9.9,0ZM124.628,77.6h17.51a7,7,0,0,1,0,14h-17.51a7,7,0,0,1,0-14Zm-7.793,32.814,12.382,12.38a7,7,0,0,1-9.9,9.9l-12.381-12.381a7,7,0,0,1,9.9-9.9ZM81.123,121.1a7,7,0,0,1,7,7v17.509a7,7,0,0,1-14,0V128.1A7,7,0,0,1,81.123,121.1ZM55.309,110.412a7,7,0,0,1,0,9.9L42.928,132.692a7,7,0,1,1-9.9-9.9l12.382-12.38A7,7,0,0,1,55.309,110.412ZM13.107,84.6a7,7,0,0,1,7-7h17.51a7,7,0,1,1,0,14H20.107A7,7,0,0,1,13.107,84.6ZM33.028,46.4a7,7,0,1,1,9.9-9.9L55.309,48.885a7,7,0,0,1-9.9,9.9ZM55.143,438.632H36.286a7,7,0,0,1,0-14H55.143a7,7,0,0,1,0,14Zm57.214,0H93.5a7,7,0,0,1,0-14h18.857a7,7,0,1,1,0,14Zm57.214,0H150.714a7,7,0,0,1,0-14h18.857a7,7,0,0,1,0,14Zm57.215,0H207.929a7,7,0,0,1,0-14h18.857a7,7,0,0,1,0,14ZM81.321,459.061a7,7,0,0,1-7,7H55.464a7,7,0,0,1,0-14H74.321A7,7,0,0,1,81.321,459.061Zm57.215,0a7,7,0,0,1-7,7H112.679a7,7,0,0,1,0-14h18.857A7,7,0,0,1,138.536,459.061Zm57.214,0a7,7,0,0,1-7,7H169.893a7,7,0,1,1,0-14H188.75A7,7,0,0,1,195.75,459.061Zm57.214,0a7,7,0,0,1-7,7H227.107a7,7,0,0,1,0-14h18.857A7,7,0,0,1,252.964,459.061Zm52.715,0a7,7,0,0,1-7,7H279.821a7,7,0,0,1,0-14h18.858A7,7,0,0,1,305.679,459.061Z"></path></g></svg>