<svg xmlns="http://www.w3.org/2000/svg" viewBox="0 0 512 512" id="checklist"><path fill="#9bc9ff" fill-rule="evenodd" d="M308.329 77.29V54.35h81.612c10.055 0 18.238 8.185 18.238 18.239v77.844l-22.941 39.704V81.29c0-2.209-1.787-4-3.997-4h-72.912zm169.479 30.455-3.687-3.774-116.732 202.201 15.483 8.955L480.439 128.79c3.939-6.822 2.865-15.418-2.631-21.045zM366.337 320.58l-32.839 18.958v-37.917l32.839 18.959zm18.901-10.891V473.06c0 2.209-1.787 4-3.997 4H56.181a3.997 3.997 0 0 1-4.001-4V81.29c0-2.212 1.79-4 4.001-4h72.917V54.35H47.482c-10.057 0-18.243 8.182-18.243 18.239V481.76c0 10.059 8.185 18.24 18.243 18.24h342.459c10.056 0 18.238-8.184 18.238-18.24V269.966l-22.941 39.723zm-266.65-104.788c-4.813 0-8.798-3.997-8.798-8.809v-38.8c0-4.813 3.984-8.81 8.798-8.81h38.809c4.816 0 8.802 3.995 8.802 8.81v9.01l-16.046 14.562-16.14-16.144a4.005 4.005 0 0 0-5.666 5.662l18.852 18.84a3.975 3.975 0 0 0 2.82 1.17 3.974 3.974 0 0 0 2.694-1.04l13.487-12.244v18.986c0 4.814-3.988 8.809-8.802 8.809h-38.81v-.002zm38.809 52.419c4.815 0 8.802 3.995 8.802 8.81v9.022l-16.048 14.563-16.14-16.158a4.005 4.005 0 0 0-5.665.001 4.005 4.005 0 0 0-.001 5.663l18.852 18.839a3.973 3.973 0 0 0 2.82 1.17 3.97 3.97 0 0 0 2.693-1.031l13.489-12.261v19.002c0 4.809-3.993 8.799-8.802 8.799h-38.809c-4.807 0-8.798-3.992-8.798-8.799v-38.81c0-4.812 3.985-8.81 8.798-8.81h38.809zm0 108.85c4.81 0 8.802 3.991 8.802 8.801v9.022l-16.047 14.562-16.14-16.147a3.998 3.998 0 0 0-5.666.001 4 4 0 0 0 0 5.652l18.852 18.84a3.977 3.977 0 0 0 5.515.138l13.486-12.24v18.982c0 4.81-3.992 8.8-8.802 8.8h-38.809c-4.807 0-8.798-3.993-8.798-8.8v-38.81c0-4.807 3.99-8.801 8.798-8.801h38.809z" clip-rule="evenodd"></path><path fill="#57a4ff" fill-rule="evenodd" d="M215.6 376.941c0-4.421 3.581-8 8.001-8h91.497a7.998 7.998 0 0 1 8.001 8 8 8 0 0 1-8.001 8h-91.497a8 8 0 0 1-8.001-8zm0 34.869a8 8 0 0 1 8.001-8h45.748a7.995 7.995 0 0 1 7.997 8c0 4.421-3.576 8-7.997 8h-45.748a7.998 7.998 0 0 1-8.001-8zm0-154.78c0-4.42 3.581-8 8.001-8h91.497c4.42 0 8.001 3.58 8.001 8 0 4.421-3.581 8-8.001 8h-91.497a7.998 7.998 0 0 1-8.001-8zm0 34.88a8 8 0 0 1 8.001-8h45.748a7.995 7.995 0 0 1 7.997 8c0 4.41-3.576 8-7.997 8h-45.748c-4.42 0-8.001-3.59-8.001-8zm0-132.66a8 8 0 0 1 8.001-8h91.497a8 8 0 0 1 8.001 8c0 4.421-3.581 8-8.001 8h-91.497a7.998 7.998 0 0 1-8.001-8zm0 34.88a8 8 0 0 1 8.001-8h45.748a7.995 7.995 0 0 1 7.997 8c0 4.41-3.576 8-7.997 8h-45.748c-4.42 0-8.001-3.59-8.001-8zm261.375-67.339L371.41 309.661l-8.558-4.95 112.095-194.17c4.151 4.25 5.142 10.869 2.028 16.25zm-72.795 354.97V284.89l-14.941 25.871V473.06c0 4.419-3.581 8-7.997 8H56.181a7.999 7.999 0 0 1-8.001-8V81.29a8 8 0 0 1 8.001-8h68.917V58.35H47.482c-7.851 0-14.243 6.391-14.243 14.239V481.76c0 7.851 6.393 14.24 14.243 14.24h342.459c7.846.001 14.239-6.389 14.239-14.239zM304.328 102.73H133.1c-4.42 0-8.001-3.59-8.001-8v-5.44H64.183v375.77H373.24V330.45l-39.742 22.95a7.99 7.99 0 0 1-4.001 1.071 8.024 8.024 0 0 1-3.996-1.071 8.008 8.008 0 0 1-4.001-6.929V294.7a7.9 7.9 0 0 1 1.08-3.999l50.66-87.76V89.29h-60.911v5.44c0 4.411-3.59 8-8.001 8zM141.097 44.91h40.861a8.006 8.006 0 0 0 7.784-6.122C192.978 25.37 204.891 16 218.709 16s25.74 9.37 28.972 22.787a7.996 7.996 0 0 0 7.779 6.122h40.87V86.73H141.097V44.91zm248.844 13.44h-77.612v14.94h68.913a7.998 7.998 0 0 1 7.997 8v93.93l14.941-25.859V72.59c0-7.849-6.393-14.24-14.239-14.24zm-52.443 250.2 20.839 12.03-20.839 12.031V308.55zM446.026 108.9 340.428 291.77l8.563 4.941 112.085-194.17c-5.708-1.451-11.983.989-15.05 6.359zm34.016-14.511-7.501-4.308c-14.106-8.16-32.232-3.301-40.389 10.819l-11.974 20.74V72.59c0-16.669-13.559-30.24-30.236-30.24H312.33v-5.44c0-4.42-3.59-8.001-8.001-8.001h-43.026C254.49 11.614 237.78.003 218.711.003s-35.77 11.61-42.592 28.906H133.1a8 8 0 0 0-8.001 8.001v5.441H47.482c-16.673 0-30.241 13.571-30.241 30.24v409.171c0 16.68 13.568 30.24 30.241 30.24h342.459c16.677 0 30.236-13.56 30.236-30.24v-224.58l70.668-122.39c8.162-14.121 3.303-32.242-10.803-40.403zM228.711 38.99c0-5.51-4.492-9.997-10.002-9.997-5.51 0-10.002 4.487-10.002 9.997 0 5.511 4.492 10 10.002 10 5.51 0 10.002-4.489 10.002-10zm-66.512 374.79c0 2.6-2.198 4.8-4.802 4.8h-38.809c-2.6 0-4.798-2.2-4.798-4.8v-38.81c0-2.6 2.199-4.801 4.798-4.801h38.809c2.604 0 4.802 2.201 4.802 4.801v7.25l-11.912 10.81-13.446-13.451a8.003 8.003 0 0 0-11.323 11.31l18.852 18.84a7.942 7.942 0 0 0 5.647 2.351 7.98 7.98 0 0 0 5.383-2.081l6.798-6.17v9.951h.001zm28.208-57.159c3.274-2.971 8.332-2.72 11.304.549 2.968 3.269 2.718 8.33-.552 11.301l-22.962 20.83v24.479c0 11.47-9.327 20.8-20.801 20.8h-38.809c-11.469 0-20.801-9.33-20.801-20.8v-38.81c0-11.47 9.332-20.801 20.801-20.801h38.809c9.251 0 17.102 6.07 19.801 14.441l13.21-11.989zm-28.208-51.68c0 2.599-2.198 4.799-4.802 4.799h-38.809c-2.6 0-4.798-2.2-4.798-4.799V266.13c0-2.61 2.199-4.81 4.798-4.81h38.809c2.604 0 4.802 2.2 4.802 4.81v7.25l-11.912 10.81-13.446-13.46a8.019 8.019 0 0 0-11.323 0 8.018 8.018 0 0 0 0 11.321l18.852 18.839a7.94 7.94 0 0 0 5.647 2.341c1.93 0 3.85-.691 5.383-2.071l6.798-6.18v9.961h.001zm28.208-57.161a7.996 7.996 0 0 1 11.304.551c2.968 3.27 2.718 8.33-.552 11.299l-22.962 20.83v24.481c0 11.469-9.327 20.799-20.801 20.799h-38.809c-11.469 0-20.801-9.33-20.801-20.799V266.13c0-11.47 9.332-20.81 20.801-20.81h38.809c9.251 0 17.102 6.08 19.801 14.45l13.21-11.99zm-28.208-90.489v7.238l-11.912 10.81-13.446-13.449a8.019 8.019 0 0 0-11.323 0 8.016 8.016 0 0 0 0 11.319l18.852 18.84a7.932 7.932 0 0 0 5.647 2.341c1.93 0 3.85-.689 5.383-2.079l6.798-6.172v9.952c0 2.609-2.198 4.809-4.802 4.809h-38.809c-2.6 0-4.798-2.2-4.798-4.809v-38.8c0-2.612 2.199-4.81 4.798-4.81h38.809c2.605 0 4.803 2.198 4.803 4.81zm-64.412 0c0-11.482 9.332-20.81 20.801-20.81h38.809c9.251 0 17.102 6.08 19.801 14.439l13.21-11.979c3.274-2.971 8.332-2.731 11.304.54 2.968 3.278 2.718 8.339-.552 11.299l-22.962 20.841v24.47c0 11.47-9.327 20.81-20.801 20.81h-38.809c-11.469 0-20.801-9.34-20.801-20.81v-38.8z" clip-rule="evenodd"></path></svg>