<svg xmlns="http://www.w3.org/2000/svg" viewBox="0 0 64 64" id="passport"><path fill="#3393d0" d="M19,52v6H13a3,3,0,0,1,0-6Z"></path><path fill="#71b4de" d="M42,17V49a3,3,0,0,1-3,3H13a3,3,0,0,0-3,3V16a2,2,0,0,1,2-2H39A3,3,0,0,1,42,17Z"></path><polygon fill="#d2f7ff" points="54 2 54 56 49 56 49 8 24 8 24 2 54 2"></polygon><path fill="#d2f7ff" d="M49,8V62H39a5,5,0,0,0-10,0H19V52H39a3,3,0,0,0,3-3V17a3,3,0,0,0-3-3H19V8Z"></path><circle cx="26" cy="28" r="7" fill="#23c3f2"></circle><path fill="#1853a2" d="M19,59H13a4,4,0,1,1,0-8h6a1,1,0,0,1,1,1v6A1,1,0,0,1,19,59Zm-6-6a2,2,0,0,0-2,2,2,2,0,0,0,2,2h5V53Z"></path><path fill="#1853a2" d="M10 56a1 1 0 0 1-1-1V16a3 3 0 0 1 3-3H39a4 4 0 0 1 4 4V49a4 4 0 0 1-4 4H27a1 1 0 0 1 0-2H39a2 2 0 0 0 2-2V17a2 2 0 0 0-2-2H12a1 1 0 0 0-1 1V51.54A4 4 0 0 1 13 51H23a1 1 0 0 1 0 2H13a2 2 0 0 0-2 2A1 1 0 0 1 10 56zM54 32a1 1 0 0 1-1-1V30a1 1 0 0 1 2 0v1A1 1 0 0 1 54 32z"></path><path fill="#1853a2" d="M54,57H49a1,1,0,0,1-1-1V9H34a1,1,0,0,1,0-2H49a1,1,0,0,1,1,1V55h3V35a1,1,0,0,1,2,0V56A1,1,0,0,1,54,57Z"></path><path fill="#1853a2" d="M54,27a1,1,0,0,1-1-1V3H25V7h5a1,1,0,0,1,0,2H24a1,1,0,0,1-1-1V2a1,1,0,0,1,1-1H54a1,1,0,0,1,1,1V26A1,1,0,0,1,54,27Z"></path><path fill="#1853a2" d="M49,63H39a1,1,0,0,1-1-1,4,4,0,0,0-8,0,1,1,0,0,1-1,1H19a1,1,0,0,1-1-1V52a1,1,0,0,1,1-1h4a1,1,0,0,1,0,2H20v8h8.08a6,6,0,0,1,11.84,0H48V9H34a1,1,0,0,1,0-2H49a1,1,0,0,1,1,1V62A1,1,0,0,1,49,63Z"></path><path fill="#1853a2" d="M39,53H27a1,1,0,0,1,0-2H39a2,2,0,0,0,2-2V17a2,2,0,0,0-2-2H19a1,1,0,0,1-1-1V8a1,1,0,0,1,1-1H30a1,1,0,0,1,0,2H20v4H39a4,4,0,0,1,4,4V49A4,4,0,0,1,39,53Z"></path><path fill="#1853a2" d="M26,36a8,8,0,0,1-7-11.83,1,1,0,1,1,1.76.95,6,6,0,1,0,2.39-2.39A1,1,0,1,1,22.17,21,8,8,0,1,1,26,36Z"></path><path fill="#ffc90e" d="M33 41H19a1 1 0 0 1 0-2H33a1 1 0 0 1 0 2zM33 46H19a1 1 0 0 1 0-2H33a1 1 0 0 1 0 2z"></path></svg>