<svg id="visual" viewBox="0 0 960 300" width="960" height="300" xmlns="http://www.w3.org/2000/svg" xmlns:xlink="http://www.w3.org/1999/xlink" version="1.1"><path d="M0 86L22.8 85.2C45.7 84.3 91.3 82.7 137 87.7C182.7 92.7 228.3 104.3 274 98.8C319.7 93.3 365.3 70.7 411.2 68.8C457 67 503 86 548.8 95.5C594.7 105 640.3 105 686 99C731.7 93 777.3 81 823 72.8C868.7 64.7 914.3 60.3 937.2 58.2L960 56L960 301L937.2 301C914.3 301 868.7 301 823 301C777.3 301 731.7 301 686 301C640.3 301 594.7 301 548.8 301C503 301 457 301 411.2 301C365.3 301 319.7 301 274 301C228.3 301 182.7 301 137 301C91.3 301 45.7 301 22.8 301L0 301Z" fill="#ff0000"></path><path d="M0 147L22.8 143.3C45.7 139.7 91.3 132.3 137 133C182.7 133.7 228.3 142.3 274 136C319.7 129.7 365.3 108.3 411.2 103.7C457 99 503 111 548.8 118.2C594.7 125.3 640.3 127.7 686 131.5C731.7 135.3 777.3 140.7 823 135.5C868.7 130.3 914.3 114.7 937.2 106.8L960 99L960 301L937.2 301C914.3 301 868.7 301 823 301C777.3 301 731.7 301 686 301C640.3 301 594.7 301 548.8 301C503 301 457 301 411.2 301C365.3 301 319.7 301 274 301C228.3 301 182.7 301 137 301C91.3 301 45.7 301 22.8 301L0 301Z" fill="#fe1c00"></path><path d="M0 173L22.8 175.5C45.7 178 91.3 183 137 181C182.7 179 228.3 170 274 162.5C319.7 155 365.3 149 411.2 151.7C457 154.3 503 165.7 548.8 168C594.7 170.3 640.3 163.7 686 156.8C731.7 150 777.3 143 823 139.2C868.7 135.3 914.3 134.7 937.2 134.3L960 134L960 301L937.2 301C914.3 301 868.7 301 823 301C777.3 301 731.7 301 686 301C640.3 301 594.7 301 548.8 301C503 301 457 301 411.2 301C365.3 301 319.7 301 274 301C228.3 301 182.7 301 137 301C91.3 301 45.7 301 22.8 301L0 301Z" fill="#fd2a01"></path><path d="M0 191L22.8 192.3C45.7 193.7 91.3 196.3 137 198.8C182.7 201.3 228.3 203.7 274 200.8C319.7 198 365.3 190 411.2 194.3C457 198.7 503 215.3 548.8 223.2C594.7 231 640.3 230 686 221.7C731.7 213.3 777.3 197.7 823 196C868.7 194.3 914.3 206.7 937.2 212.8L960 219L960 301L937.2 301C914.3 301 868.7 301 823 301C777.3 301 731.7 301 686 301C640.3 301 594.7 301 548.8 301C503 301 457 301 411.2 301C365.3 301 319.7 301 274 301C228.3 301 182.7 301 137 301C91.3 301 45.7 301 22.8 301L0 301Z" fill="#fc3402"></path><path d="M0 224L22.8 224.5C45.7 225 91.3 226 137 227.5C182.7 229 228.3 231 274 232.5C319.7 234 365.3 235 411.2 234.3C457 233.7 503 231.3 548.8 234.3C594.7 237.3 640.3 245.7 686 251.3C731.7 257 777.3 260 823 256.2C868.7 252.3 914.3 241.7 937.2 236.3L960 231L960 301L937.2 301C914.3 301 868.7 301 823 301C777.3 301 731.7 301 686 301C640.3 301 594.7 301 548.8 301C503 301 457 301 411.2 301C365.3 301 319.7 301 274 301C228.3 301 182.7 301 137 301C91.3 301 45.7 301 22.8 301L0 301Z" fill="#fb3d03"></path></svg>