<svg id="visual" viewBox="0 0 960 540" width="960" height="540" xmlns="http://www.w3.org/2000/svg" xmlns:xlink="http://www.w3.org/1999/xlink" version="1.1"><rect x="0" y="0" width="960" height="540" fill="#4663ac"></rect><path d="M0 383L13.3 388.5C26.7 394 53.3 405 80 416C106.7 427 133.3 438 160 443C186.7 448 213.3 447 240 444C266.7 441 293.3 436 320 437C346.7 438 373.3 445 400 453.5C426.7 462 453.3 472 480 472C506.7 472 533.3 462 560 448.7C586.7 435.3 613.3 418.7 640 416.8C666.7 415 693.3 428 720 438.8C746.7 449.7 773.3 458.3 800 455.7C826.7 453 853.3 439 880 438.5C906.7 438 933.3 451 946.7 457.5L960 464L960 541L946.7 541C933.3 541 906.7 541 880 541C853.3 541 826.7 541 800 541C773.3 541 746.7 541 720 541C693.3 541 666.7 541 640 541C613.3 541 586.7 541 560 541C533.3 541 506.7 541 480 541C453.3 541 426.7 541 400 541C373.3 541 346.7 541 320 541C293.3 541 266.7 541 240 541C213.3 541 186.7 541 160 541C133.3 541 106.7 541 80 541C53.3 541 26.7 541 13.3 541L0 541Z" fill="#fff" stroke-linecap="round" stroke-linejoin="miter"></path></svg>